<?xml version="1.0" encoding="UTF-8"?>
<svg version="1.1" xmlns="http://www.w3.org/2000/svg" width="500" height="648">
<path d="M0 0 C165 0 330 0 500 0 C500.0825 76.51875 500.165 153.0375 500.25 231.875 C500.28641602 256.03960449 500.32283203 280.20420898 500.36035156 305.10107422 C500.37841797 334.59985352 500.37841797 334.59985352 500.3817749 348.40774536 C500.38550277 358.05532739 500.40016591 367.7028166 500.42230225 377.35037231 C500.4478092 388.48343486 500.4593331 399.61640849 500.4537798 410.74950046 C500.45137575 416.44147327 500.45512026 422.13324747 500.47686052 427.82518363 C500.4964356 432.98176342 500.49722293 438.13800559 500.48360443 443.29460144 C500.48192087 445.14954622 500.48688339 447.00451286 500.49953032 448.85941529 C500.70907407 481.53864628 488.3730374 509.35620488 466 533 C464.95392578 534.12535156 464.95392578 534.12535156 463.88671875 535.2734375 C430.57132083 569.98966568 379.23646948 585.56829927 334.9140625 600.83984375 C333.97045364 601.16571976 333.02684479 601.49159576 332.05464172 601.8273468 C327.46421778 603.41132438 322.87066741 604.98450963 318.26928711 606.53637695 C293.21861842 615.06832991 266.9314307 625.6446053 251 648 C247.74957109 646.60493574 245.92628208 645.03216606 243.6875 642.3125 C243.07390625 641.59578125 242.4603125 640.8790625 241.828125 640.140625 C241.22484375 639.43421875 240.6215625 638.7278125 240 638 C232.24691577 628.96805652 221.76386158 623.10573968 211.1015625 618.11328125 C210.36834778 617.76973602 209.63513306 617.4261908 208.87969971 617.07223511 C201.00293843 613.44766548 192.92377236 610.49925078 184.75 607.625 C183.17277981 607.06258756 181.59579838 606.49950515 180.01904297 605.93579102 C171.588916 602.93064414 163.13209078 600.01092715 154.65649414 597.13671875 C111.8926257 582.61503733 67.80494445 566.06981965 35 534 C34.26523437 533.32710937 33.53046875 532.65421875 32.7734375 531.9609375 C17.66062354 517.81149016 6.65576845 497.0468461 2 477 C1.74230432 475.95096623 1.74230432 475.95096623 1.47940266 474.88073987 C-0.50686213 465.6266721 -0.27222099 456.39930341 -0.24050903 446.98603821 C-0.2413849 445.05903568 -0.24314061 443.13203338 -0.24569702 441.20503235 C-0.25017018 435.91891643 -0.24217353 430.63288196 -0.23214546 425.34677638 C-0.22339774 419.55540181 -0.22633563 413.76403085 -0.2277813 407.97265148 C-0.22884366 396.73602965 -0.2196183 385.49943985 -0.20677864 374.26282625 C-0.19236894 361.262576 -0.1907886 348.26234495 -0.18920898 335.26208496 C-0.17871173 300.94555157 -0.15078946 266.6290253 -0.125 232.3125 C-0.08375 155.649375 -0.0425 78.98625 0 0 Z " fill="#020100" transform="translate(0,0)"/>
<path d="M0 0 C165 0 330 0 500 0 C500.0825 76.51875 500.165 153.0375 500.25 231.875 C500.28641602 256.03960449 500.32283203 280.20420898 500.36035156 305.10107422 C500.37841797 334.59985352 500.37841797 334.59985352 500.3817749 348.40774536 C500.38550277 358.05532739 500.40016591 367.7028166 500.42230225 377.35037231 C500.4478092 388.48343486 500.4593331 399.61640849 500.4537798 410.74950046 C500.45137575 416.44147327 500.45512026 422.13324747 500.47686052 427.82518363 C500.4964356 432.98176342 500.49722293 438.13800559 500.48360443 443.29460144 C500.48192087 445.14954622 500.48688339 447.00451286 500.49953032 448.85941529 C500.70907407 481.53864628 488.3730374 509.35620488 466 533 C464.95392578 534.12535156 464.95392578 534.12535156 463.88671875 535.2734375 C430.57132083 569.98966568 379.23646948 585.56829927 334.9140625 600.83984375 C333.97045364 601.16571976 333.02684479 601.49159576 332.05464172 601.8273468 C327.46421778 603.41132438 322.87066741 604.98450963 318.26928711 606.53637695 C293.21861842 615.06832991 266.9314307 625.6446053 251 648 C247.74957109 646.60493574 245.92628208 645.03216606 243.6875 642.3125 C243.07390625 641.59578125 242.4603125 640.8790625 241.828125 640.140625 C241.22484375 639.43421875 240.6215625 638.7278125 240 638 C232.24691577 628.96805652 221.76386158 623.10573968 211.1015625 618.11328125 C210.36834778 617.76973602 209.63513306 617.4261908 208.87969971 617.07223511 C201.00293843 613.44766548 192.92377236 610.49925078 184.75 607.625 C183.17277981 607.06258756 181.59579838 606.49950515 180.01904297 605.93579102 C171.588916 602.93064414 163.13209078 600.01092715 154.65649414 597.13671875 C111.8926257 582.61503733 67.80494445 566.06981965 35 534 C34.26523437 533.32710937 33.53046875 532.65421875 32.7734375 531.9609375 C17.66062354 517.81149016 6.65576845 497.0468461 2 477 C1.74230432 475.95096623 1.74230432 475.95096623 1.47940266 474.88073987 C-0.50686213 465.6266721 -0.27222099 456.39930341 -0.24050903 446.98603821 C-0.2413849 445.05903568 -0.24314061 443.13203338 -0.24569702 441.20503235 C-0.25017018 435.91891643 -0.24217353 430.63288196 -0.23214546 425.34677638 C-0.22339774 419.55540181 -0.22633563 413.76403085 -0.2277813 407.97265148 C-0.22884366 396.73602965 -0.2196183 385.49943985 -0.20677864 374.26282625 C-0.19236894 361.262576 -0.1907886 348.26234495 -0.18920898 335.26208496 C-0.17871173 300.94555157 -0.15078946 266.6290253 -0.125 232.3125 C-0.08375 155.649375 -0.0425 78.98625 0 0 Z M227 17 C226.34 18.32 225.68 19.64 225 21 C224.35933594 20.67644531 223.71867188 20.35289063 223.05859375 20.01953125 C218.99776696 18.66592232 215.31361677 18.6701485 211.0625 18.6875 C209.88397461 18.66333008 209.88397461 18.66333008 208.68164062 18.63867188 C201.49250759 18.63265586 196.20474209 20.9322248 191 26 C185.93351786 32.51876366 186.13657113 40.08959609 187 48 C188.58637298 54.81207221 191.13006651 59.99479058 196 65 C198.4915405 64.55508205 199.80266956 64.18271337 201.6875 62.4375 C205.36303155 60.15271012 208.79818419 60.28008428 213 61 C219.49053695 63.54438472 223.26803752 68.30310272 227 74 C221.65400378 73.06160705 216.32285327 72.06202826 211 71 C210.32743164 70.86609863 209.65486328 70.73219727 208.96191406 70.59423828 C198.22197419 68.38023269 188.73215634 64.51954179 178.84228516 59.85058594 C176.59433886 58.81270562 174.31216823 57.88473498 172 57 C173.49928721 64.30902514 178.72452084 69.73779856 184.71484375 73.875 C187.11608834 75.3081675 189.54593661 76.66055019 192 78 C192.33 78.33 192.66 78.66 193 79 C192.01 79.495 192.01 79.495 191 80 C201.88790081 90.56156046 212.98043168 93.25314683 227.76782227 93.10253906 C229.5120006 93.07510115 231.25603115 93.0385171 233 93 C229.92024087 108.29864087 225.42573852 121.18357839 214.6875 132.6875 C203.9916425 144.35734789 196.23029179 157.84232011 195.375 173.94140625 C195.31699219 174.96675476 195.31699219 174.96675476 195.2578125 176.01281738 C195.1647921 177.67483031 195.08137128 179.33737603 195 181 C160.3492032 178.14938 160.3492032 178.14938 147 174 C146.23252441 173.76829102 145.46504883 173.53658203 144.67431641 173.29785156 C120.10481412 165.74174498 94.03056729 152.90005287 80.5390625 129.9453125 C73.80165071 117.05188994 70.86561676 102.48397153 75.1328125 88.2109375 C76.28175162 85.67014071 77.47257529 83.32932269 79 81 C79.94875 81.86625 80.8975 82.7325 81.875 83.625 C92.75289572 92.95522763 102.69604377 96.20514059 116.78515625 95.27685547 C126.40647362 94.0741908 134.17936537 87.35902722 140 80 C145.09454251 72.60567147 145.09454251 72.60567147 146 64 C139.30689428 51.96335211 129.647002 43.20558112 117 38 C116.10796875 37.62875 115.2159375 37.2575 114.296875 36.875 C100.50484223 33.21455528 85.663445 35.92354211 72.1875 39.5 C55.75108929 43.84541924 42.57236088 45.90277882 27 38 C24.80179998 37.34081748 24.80179998 37.34081748 23 37 C23.27906952 45.79068979 26.03544033 51.12856757 32.328125 57.2734375 C34.51692563 59.22923678 36.74607099 61.1202232 39 63 C39.66 63.66 40.32 64.32 41 65 C40.62488281 65.46148437 40.24976562 65.92296875 39.86328125 66.3984375 C27.29985193 82.41127185 25.84063527 99.37436174 25.87974548 119.07801819 C25.87930901 120.715082 25.8784327 122.35214574 25.87715632 123.98920912 C25.8749263 128.47250561 25.87891218 132.9557781 25.88393438 137.43907154 C25.88826015 142.27944936 25.88679094 147.11982587 25.8860321 151.96020508 C25.88550822 160.34145998 25.8886409 168.72270709 25.89426994 177.10396004 C25.90240325 189.221787 25.90500204 201.3396102 25.90625793 213.45743959 C25.90844557 233.11868257 25.91509786 252.77992139 25.92456055 272.44116211 C25.93374211 291.53816711 25.94081931 310.63517098 25.94506836 329.73217773 C25.94533108 330.90967648 25.94559381 332.08717522 25.94586449 333.30035574 C25.94716955 339.20762817 25.94843325 345.11490061 25.94967639 351.02217305 C25.96004004 400.0147849 25.97765053 449.00739225 26 498 C28.69235595 496.69095372 30.88728522 495.407094 33.13671875 493.42578125 C33.71486328 492.92240234 34.29300781 492.41902344 34.88867188 491.90039062 C35.48228516 491.37638672 36.07589844 490.85238281 36.6875 490.3125 C37.85611854 489.28553219 39.02672372 488.26082102 40.19921875 487.23828125 C41.05031561 486.48012394 41.05031561 486.48012394 41.91860634 485.70665032 C44 484 44 484 46.3005361 482.57850164 C49.83784507 480.30162145 52.51169589 478.51903006 53.83247769 474.41030514 C54.15262885 471.20405839 54.18361338 468.10478952 54.12025452 464.88294983 C54.13202789 463.6641538 54.14380127 462.44535778 54.15593141 461.18962854 C54.17949414 457.81752808 54.16288792 454.44999578 54.12913358 451.0782727 C54.10254735 447.43885499 54.12799907 443.79975237 54.14706421 440.16033936 C54.17298349 433.85887664 54.16608539 427.55813903 54.13676643 421.25670052 C54.09442472 412.1460803 54.10177902 403.0360306 54.12118178 393.92535739 C54.15131656 379.1434056 54.14137656 364.36176403 54.10620117 349.57983398 C54.07212174 335.22236383 54.05693684 320.8650783 54.06713867 306.50756836 C54.06776116 305.62226974 54.06838364 304.73697112 54.06902499 303.82484526 C54.07226436 299.38347026 54.07587493 294.94209565 54.07967007 290.5007211 C54.11066421 253.66702688 54.0766069 216.83361976 54 180 C57.58304002 182.17505466 60.51735034 184.2385187 61.66048801 188.41052127 C61.90006765 191.43411205 61.92608926 194.39437716 61.87974548 197.42733765 C61.88981001 198.58402596 61.89987454 199.74071428 61.91024405 200.93245375 C61.93109584 204.13478975 61.92068868 207.33525694 61.89700234 210.53751683 C61.87908215 213.99356453 61.90157627 217.44937889 61.91912842 220.90539551 C61.9440084 226.89028133 61.9433598 232.8747262 61.92530632 238.85963058 C61.89924141 247.51267053 61.91177895 256.16531694 61.93369765 264.81835265 C61.96821354 278.85762896 61.97156863 292.89673258 61.95532227 306.93603516 C61.93960847 320.57279754 61.93857353 334.20943091 61.95727539 347.84619141 C61.95842332 348.68694782 61.95957125 349.52770423 61.96075397 350.39393811 C61.96660342 354.61182276 61.97274141 358.82970694 61.97902286 363.04759097 C62.03074953 398.03177055 62.03190306 433.01580053 62 468 C64.97282084 466.24026983 67.73405914 464.52948092 70.33984375 462.2578125 C70.92830078 461.74863281 71.51675781 461.23945313 72.12304688 460.71484375 C73.02120117 459.92787109 73.02120117 459.92787109 73.9375 459.125 C75.1337766 458.08554839 76.33038816 457.04648216 77.52734375 456.0078125 C78.31226196 455.32162842 78.31226196 455.32162842 79.11303711 454.62158203 C81 453 81 453 84.07283974 451.01517963 C86.02713068 449.36986891 86.88607742 448.42457486 87.55313849 445.93852365 C87.75812986 443.32072281 87.77061314 440.76109935 87.7215271 438.13554382 C87.72921692 436.63455547 87.72921692 436.63455547 87.7370621 435.10324413 C87.74695472 431.74615467 87.71392924 428.39085955 87.68115234 425.03393555 C87.67946014 422.62928815 87.68040943 420.22463765 87.68380737 417.81999207 C87.68517419 412.64099937 87.66814444 407.46241331 87.63438034 402.28354454 C87.58559539 394.79584075 87.56998945 387.30835621 87.56245239 379.82051072 C87.54932407 367.67180138 87.50940404 355.5233339 87.45263672 343.37475586 C87.39755352 331.57431243 87.35508748 319.77393472 87.32958984 307.97338867 C87.32722533 306.88211872 87.32722533 306.88211872 87.32481305 305.7688029 C87.31698277 302.1190431 87.30940053 298.46928284 87.30194163 294.81952226 C87.23975207 264.54617502 87.13363642 234.27312109 87 204 C88.7578125 205.04166667 90.515625 206.08333333 92.2734375 207.125 C93.97472667 208.15068348 93.97472667 208.15068348 96 208 C96 284.56 96 361.12 96 440 C101.04104091 436.21921932 105.92676077 432.47050835 110.6875 428.375 C116.87256986 423.07981534 116.87256986 423.07981534 119.65309429 421.33824539 C122.36431098 418.63703336 122.59173475 417.06278841 122.64540654 413.30139804 C122.63084234 412.54264164 122.61627813 411.78388525 122.60127258 411.00213623 C122.60554471 410.19017516 122.60981683 409.3782141 122.61421841 408.54164815 C122.62246318 405.81724565 122.59493989 403.09437814 122.56762695 400.37011719 C122.5662168 398.41881344 122.56700782 396.46750704 122.56983948 394.51620483 C122.57127631 389.21472628 122.54184303 383.91381132 122.50696969 378.61246395 C122.47575083 373.07380454 122.47277897 367.53513275 122.46684265 361.99639893 C122.45129108 351.50619777 122.41024471 341.0162566 122.3600952 330.52617002 C122.3042427 318.58438229 122.27672551 306.64258226 122.25161803 294.70069647 C122.19933013 270.13365341 122.11136219 245.56684126 122 221 C124.97 221.99 127.94 222.98 131 224 C131 285.38 131 346.76 131 410 C135.54008305 407.72995847 138.92575544 404.91702922 142.7709465 401.63458061 C144.85301941 399.89030496 146.8952316 398.39737734 149.16304398 396.87080574 C155.52001255 392.38022839 155.52001255 392.38022839 159.08345795 385.58889389 C159.4759723 381.49368414 159.48904578 377.55709949 159.36230469 373.45263672 C159.3589139 371.90438604 159.36083135 370.35611612 159.36761475 368.80787659 C159.37103933 364.63126312 159.30081953 360.45883796 159.21672726 356.28319311 C159.14138559 351.90989133 159.13463747 347.5364788 159.12042236 343.16262817 C159.08321797 334.89241277 158.98487857 326.62411533 158.86422849 318.35474217 C158.72980213 308.93537259 158.6640474 299.5159083 158.60388327 290.09581733 C158.47866492 270.72946003 158.26778365 251.36488455 158 232 C161.3 232.66 164.6 233.32 168 234 C168 282.18 168 330.36 168 380 C173.23702857 376.07222857 178.270946 372.16122657 183.1875 367.875 C184.36780796 366.85077648 185.54878515 365.82732359 186.73046875 364.8046875 C187.23989014 364.36108887 187.74931152 363.91749023 188.27416992 363.46044922 C190 362 190 362 192.5723877 360.63131714 C196.45808316 356.41956675 195.65658624 351.96643652 195.56762695 346.43847656 C195.56835709 345.25771042 195.56908722 344.07694427 195.56983948 342.86039734 C195.56695404 339.62683302 195.54189148 336.39435245 195.50696969 333.16100407 C195.47569976 329.78045938 195.47277499 326.39989307 195.46684265 323.01922607 C195.4513059 316.61948882 195.41028033 310.22017894 195.3600952 303.82062984 C195.30419599 296.53415819 195.27671389 289.24766606 195.25161803 281.96103334 C195.19936386 266.97378415 195.11142547 251.98693483 195 237 C195.66 237 196.32 237 197 237 C197.12415283 237.77520996 197.24830566 238.55041992 197.3762207 239.34912109 C197.89494852 242.58131851 198.41529068 245.81324882 198.93670654 249.04501343 C199.1878962 250.60243418 199.43874895 252.15990931 199.68927002 253.71743774 C201.56200491 265.34863748 203.49614841 276.96876566 205.47096062 288.58302307 C206.22846532 293.04275686 206.98176193 297.50320433 207.735425 301.96358871 C208.48994286 306.42516775 209.25182342 310.88541528 210.01868725 315.34488773 C210.50496314 318.18319615 210.9843081 321.02264573 211.46195793 323.86241722 C211.79438289 325.82585547 212.1351647 327.78787314 212.47621155 329.74983215 C215.47967392 347.7117061 215.47967392 347.7117061 212.27734375 352.6640625 C211.50519531 353.31117188 210.73304688 353.95828125 209.9375 354.625 C206.95799451 357.20214492 204.25565413 359.78897632 201.69140625 362.7734375 C197.37682968 367.78718656 192.68010696 372.37123609 187.9609375 377 C184.68299366 380.23997537 181.50864439 383.50697069 178.5 387 C174.24967188 391.93462131 169.60741662 396.44253389 164.9609375 401 C160.98912775 404.92580423 157.23317673 408.95635376 153.58935547 413.18798828 C151.51837694 415.54909468 149.3132244 417.74833388 147.0625 419.9375 C145.69012855 421.27321379 144.32982791 422.62192437 143 424 C143 424.33 143 424.66 143 425 C149.27 425 155.54 425 162 425 C156.26852546 434.22409184 150.48529921 443.4130138 144.63891602 452.56472778 C143.57405931 454.23190237 142.51065436 455.90000393 141.44726562 457.56811523 C140.78533203 458.60266846 140.12339844 459.63722168 139.44140625 460.703125 C138.85045166 461.62770508 138.25949707 462.55228516 137.65063477 463.50488281 C136.17384687 465.7372112 134.63233575 467.87979343 133 470 C128.80199645 468.68719677 124.94213997 467.09947533 121.0078125 465.13671875 C119.89019531 464.57919922 118.77257812 464.02167969 117.62109375 463.44726562 C116.46738281 462.86654297 115.31367187 462.28582031 114.125 461.6875 C112.97902344 461.11837891 111.83304687 460.54925781 110.65234375 459.96289062 C105.7348738 457.49849688 100.97544948 455.06158245 96.4296875 451.95703125 C94.73199219 450.98830078 94.73199219 450.98830078 93 450 C88.99815962 451.42311052 86.26602078 454.36680312 83.3125 457.3125 C82.81427734 457.78623047 82.31605469 458.25996094 81.80273438 458.74804688 C77.4310968 463.08409445 77.05697838 465.80063444 76.90234375 471.76953125 C76.90891785 473.11722242 76.92073556 474.46489707 76.9375 475.8125 C76.94201172 476.50537109 76.94652344 477.19824219 76.95117188 477.91210938 C76.96286844 479.60811068 76.98080076 481.30406703 77 483 C81.38894929 479.73279209 85.75259665 476.45101522 90 473 C90 473.99 90 474.98 90 476 C94.10283012 477.00553881 98.20747057 478.0034811 102.3125 479 C103.47974609 479.28617187 104.64699219 479.57234375 105.84960938 479.8671875 C107.52700195 480.27324219 107.52700195 480.27324219 109.23828125 480.6875 C110.26993408 480.93886719 111.30158691 481.19023437 112.36450195 481.44921875 C115.04068709 482.10228308 115.04068709 482.10228308 118 482 C118 482.66 118 483.32 118 484 C117.3503125 484.226875 116.700625 484.45375 116.03125 484.6875 C111.96841614 486.44666518 108.29322629 488.72703593 104.5 491 C94.31513071 497.01636575 83.75113362 502.08524218 73 507 C73.81776244 511.62207079 75.46838006 515.5120984 77.5625 519.6875 C77.9138501 520.39068359 78.2652002 521.09386719 78.62719727 521.81835938 C81.70199816 527.77813335 85.32776435 533.15299245 90 538 C90.33 538 90.66 538 91 538 C91.495 528.595 91.495 528.595 92 519 C93.65 520.32 95.3 521.64 97 523 C100.1680066 521.63153062 101.91452269 520.18085148 104.0625 517.5 C111.05766644 509.24660233 119.44687394 502.55692501 128 496 C127.86368164 497.61056274 127.86368164 497.61056274 127.72460938 499.25366211 C127.38538432 503.27337093 127.05111188 507.29347942 126.71826172 511.3137207 C126.57408505 513.04690487 126.42860196 514.77998091 126.28173828 516.51293945 C126.06972292 519.01746109 125.86255695 521.52234618 125.65625 524.02734375 C125.59062866 524.79022202 125.52500732 525.55310028 125.45739746 526.33909607 C125.14383494 530.20281831 124.92564576 534.05876227 124.84643555 537.93481445 C124.8314653 538.66577835 124.81649506 539.39674225 124.80107117 540.14985657 C124.84153264 542.21662094 124.84153264 542.21662094 126.80078125 544.015625 C128.04408203 544.62664062 128.04408203 544.62664062 129.3125 545.25 C130.21742188 545.71148438 131.12234375 546.17296875 132.0546875 546.6484375 C133.02664062 547.09445312 133.99859375 547.54046875 135 548 C135.99257812 548.48726562 136.98515625 548.97453125 138.0078125 549.4765625 C143.27909637 552.14032109 143.27909637 552.14032109 149 553 C147.1447974 547.27979198 145.06587358 541.64672112 143 536 C146.63 536.33 150.26 536.66 154 537 C153.57605027 532.50613286 152.88472668 528.36774368 151.625 524.03125 C149.85891637 517.68450316 148.56602688 511.27706311 147.3125 504.8125 C146.97508789 503.09836914 146.97508789 503.09836914 146.63085938 501.34960938 C146.08366841 498.56708511 145.54011288 495.78390523 145 493 C145.73114014 493.33845947 146.46228027 493.67691895 147.21557617 494.02563477 C150.53329574 495.55197001 153.86010521 497.05738092 157.1875 498.5625 C158.91323242 499.36204102 158.91323242 499.36204102 160.67382812 500.17773438 C161.78564453 500.67724609 162.89746094 501.17675781 164.04296875 501.69140625 C165.57473755 502.39052124 165.57473755 502.39052124 167.13745117 503.10375977 C170.2788504 504.08730574 171.89836171 504.00091883 175 503 C175.33 502.67 175.66 502.34 176 502 C176 507.61 176 513.22 176 519 C177.64922622 517.59128594 179.29489853 516.1782288 180.92382812 514.74609375 C183 513 183 513 185.12304688 511.53515625 C188.37543325 509.15269987 190.65935206 507.38826937 191.64453125 503.37329102 C191.78626295 500.39869701 191.70101454 497.53326303 191.5 494.5625 C191.46390625 493.54478516 191.4278125 492.52707031 191.390625 491.47851562 C191.29684854 488.98171728 191.16583025 486.49287512 191 484 C186.08944065 483.14122311 181.1781431 482.28684931 176.26611328 481.43652344 C174.59565619 481.14671388 172.92540616 480.85570818 171.25537109 480.56347656 C168.85307564 480.14332495 166.45006525 479.72749893 164.046875 479.3125 C163.30193787 479.18125732 162.55700073 479.05001465 161.78948975 478.91479492 C158.45113312 478.34225836 155.40064887 478 152 478 C152.71542969 477.28585937 153.43085938 476.57171875 154.16796875 475.8359375 C155.99009056 474.01445661 157.80363867 472.18555004 159.61328125 470.3515625 C164.31774803 465.59943831 169.05490635 460.97174644 174.1484375 456.6328125 C176.74717391 454.3410998 179.15074969 451.87619916 181.5546875 449.3828125 C183 448 183 448 185 447 C185 453.6 185 460.2 185 467 C187.83351389 464.16648611 189.76792025 462.09138344 191.88500977 458.86157227 C192.41558487 458.05716202 192.94615997 457.25275177 193.49281311 456.42396545 C194.05334885 455.56347092 194.61388458 454.70297638 195.19140625 453.81640625 C195.77792465 452.92388657 196.36444305 452.03136688 196.96873474 451.11180115 C198.83780375 448.26494374 200.70009889 445.41372277 202.5625 442.5625 C203.8192454 440.64751335 205.07640242 438.73279676 206.33398438 436.81835938 C212.83766987 427.01644914 212.83766987 427.01644914 219 417 C220.5566331 508.48811674 220.5566331 508.48811674 197.27734375 533.87890625 C185.86459202 544.25177172 171.70518514 545.50527799 157 546 C161.04679771 556.4969338 167.60746447 563.27000672 177.66796875 568.0546875 C187.90964449 572.20625455 200.83512702 570.70821546 211 567 C213.47297212 565.80198239 215.81976331 564.5241678 218.16015625 563.0859375 C220 562 220 562 223 561 C223.37769531 561.64324219 223.75539062 562.28648437 224.14453125 562.94921875 C230.30694367 573.06596606 238.08781287 584.25971275 248 591 C254.60649226 590.63476303 258.66057815 585.50897958 263 581 C268.37419369 574.77644213 273.02901869 568.19853689 277 561 C279.09211485 562.02937769 281.15334879 563.08528489 283.19140625 564.21875 C293.64411586 569.86700165 305.78142165 571.81256226 317.54296875 569.5 C328.88822184 566.06322798 337.37461762 558.38532131 343 548 C343 547.34 343 546.68 343 546 C341.98421875 545.96261719 340.9684375 545.92523437 339.921875 545.88671875 C324.64461267 545.21203668 311.44156442 542.94081976 300.25 531.5 C280.31267335 506.78153987 280.81018065 468.22049447 280.9375 438.25 C280.94252498 436.18489692 280.94708612 434.11979265 280.95117188 432.0546875 C280.96209857 427.0364287 280.97930825 422.01822765 281 417 C281.60150879 417.97227539 282.20301758 418.94455078 282.82275391 419.94628906 C288.43729081 428.9927296 294.17311263 437.94609246 300.07958984 446.8046875 C301.40054958 448.78836771 302.71396536 450.77691935 304.02734375 452.765625 C304.87975899 454.04717399 305.73260665 455.32843549 306.5859375 456.609375 C307.16412735 457.48743805 307.16412735 457.48743805 307.7539978 458.38323975 C309.97134323 461.69071171 312.13437075 464.13437075 315 467 C315 460.4 315 453.8 315 447 C318.9528288 450.39804581 322.84732048 453.77983448 326.5 457.5 C328.91065479 459.95448488 331.39352391 462.2544206 334 464.5 C337.85629756 467.82465265 341.44222819 471.36116504 345 475 C345.99931206 476.00068747 346.99921695 477.00078366 348 478 C347.27949463 478.04898437 346.55898926 478.09796875 345.81665039 478.1484375 C338.27264954 478.71224782 330.8896685 479.713697 323.4375 481 C322.37208984 481.17789062 321.30667969 481.35578125 320.20898438 481.5390625 C314.53430428 482.47870997 314.53430428 482.47870997 309 484 C307.33591291 496.78642288 307.33591291 496.78642288 310.03125 508.95654297 C313.51329257 513.04094781 317.99372031 515.3312401 323 517 C323.33 512.05 323.66 507.1 324 502 C324.66 502.66 325.32 503.32 326 504 C330.24051369 503.64506878 333.74939099 502.43145007 337.6171875 500.71484375 C338.63554687 500.26689453 339.65390625 499.81894531 340.703125 499.35742188 C341.74984375 498.88884766 342.7965625 498.42027344 343.875 497.9375 C344.94492187 497.46505859 346.01484375 496.99261719 347.1171875 496.50585938 C349.7475638 495.34332699 352.37497517 494.17455398 355 493 C354.20513332 496.92959562 353.40533516 500.85815475 352.60131836 504.78588867 C352.19720858 506.76495372 351.79680066 508.74477351 351.39648438 510.72460938 C350.01163158 517.47790388 348.51431741 524.1286449 346.54418945 530.73706055 C345.84412447 533.26027885 345.84412447 533.26027885 346 537 C349.63 536.67 353.26 536.34 357 536 C356.65066406 536.89203125 356.30132812 537.7840625 355.94140625 538.703125 C355.25884766 540.45882813 355.25884766 540.45882813 354.5625 542.25 C353.88380859 543.99023438 353.88380859 543.99023438 353.19140625 545.765625 C352.29849367 548.18966308 351.54205635 550.48286475 351 553 C358.81569659 551.14752113 369.16126471 547.83873529 375 542 C374.95911103 539.74796119 374.83629626 537.49748979 374.6875 535.25 C374.64117432 534.53078369 374.59484863 533.81156738 374.54711914 533.07055664 C374.37128959 530.37989821 374.18578595 527.68998958 374 525 C373.82810418 522.47265767 373.6562307 519.94531381 373.484375 517.41796875 C372.99645617 510.27816276 372.50050501 503.1389354 372 496 C378.29654858 501.07790795 384.49218479 506.19629333 390.375 511.75 C390.95121094 512.28753906 391.52742188 512.82507813 392.12109375 513.37890625 C395.47986101 516.52344689 398.76486162 519.72851175 402 523 C403.98 521.68 405.96 520.36 408 519 C408.33 525.27 408.66 531.54 409 538 C412.83123092 534.16876908 415.732808 530.74913043 418.5625 526.25 C418.95236084 525.63600342 419.34222168 525.02200684 419.74389648 524.3894043 C425.03389701 516.24850924 425.03389701 516.24850924 427 507 C425.63294922 506.45085937 425.63294922 506.45085937 424.23828125 505.890625 C411.07451987 500.44456322 398.25740817 493.72211807 386.5078125 485.63671875 C384.21996657 483.81781791 384.21996657 483.81781791 382 484 C382 483.34 382 482.68 382 482 C382.92941406 481.88785156 383.85882813 481.77570313 384.81640625 481.66015625 C389.93338732 480.92915895 394.92033098 479.66178526 399.9375 478.4375 C400.90751953 478.20353516 401.87753906 477.96957031 402.87695312 477.72851562 C405.25201551 477.15522471 407.62632053 476.57898512 410 476 C410 475.01 410 474.02 410 473 C410.66 473 411.32 473 412 473 C412 473.66 412 474.32 412 475 C413.5910643 476.43802182 415.2486015 477.80325335 416.9375 479.125 C417.85402344 479.84945313 418.77054687 480.57390625 419.71484375 481.3203125 C421.66161306 483.09870983 421.66161306 483.09870983 423 483 C423.05420701 480.43721301 423.09377007 477.87558517 423.125 475.3125 C423.14175781 474.59126953 423.15851563 473.87003906 423.17578125 473.12695312 C423.23246131 466.92048636 422.43195924 463.35397775 418.1796875 458.88671875 C417.08572043 457.81252217 415.98392245 456.74625079 414.875 455.6875 C414.31167969 455.13771484 413.74835938 454.58792969 413.16796875 454.02148438 C411.78537942 452.67404562 410.39359084 451.33605727 409 450 C404.63621793 451.63083413 400.55227633 453.71920365 396.43359375 455.87890625 C394.96424479 456.64267833 393.49484213 457.40634711 392.02539062 458.16992188 C389.7248481 459.36880308 387.4250229 460.56902521 385.1262207 461.77124023 C382.89723178 462.9357936 380.66559499 464.09513943 378.43359375 465.25390625 C377.4053373 465.79453453 377.4053373 465.79453453 376.35630798 466.34608459 C373.25768338 467.95166925 370.4026633 469.24349431 367 470 C357.00255364 455.21115077 347.4604276 440.13668416 338 425 C344.27 425 350.54 425 357 425 C352.90098673 420.21781786 348.92377829 415.85420103 344.44140625 411.50390625 C342.44545389 409.45685751 340.57880687 407.37898579 338.71484375 405.21484375 C335.0036881 400.93711469 331.04125474 396.96383607 327 393 C322.39197045 388.48024688 317.98982203 383.89067773 313.77734375 379 C310.67613415 375.51028722 307.33165868 372.2678338 304 369 C299.3158445 364.40557928 294.80545054 359.75317605 290.54296875 354.76171875 C289.07241339 352.99257191 289.07241339 352.99257191 287.42137909 351.67358398 C284.67132818 348.43557296 285.7073516 344.02617975 286 340 C286.39190408 336.51607045 286.9543399 333.0774936 287.56054688 329.625 C287.80926292 328.14996254 287.80926292 328.14996254 288.06300354 326.64512634 C288.60724263 323.42872561 289.16296161 320.21442325 289.71875 317 C290.10065896 314.75476862 290.48179124 312.509405 290.86218262 310.26391602 C291.86116537 304.37809782 292.86969193 298.49395651 293.8805542 292.61016846 C295.30787592 284.29164915 296.72205426 275.97088333 298.13781738 267.65039062 C298.89124013 263.2227301 299.64823964 258.79570394 300.40808105 254.36914062 C300.75188064 252.35937652 301.09567179 250.34961098 301.43945312 248.33984375 C301.59841568 247.41832016 301.75737823 246.49679657 301.92115784 245.54734802 C302.06419846 244.70922073 302.20723907 243.87109344 302.35461426 243.00756836 C302.4799781 242.2775914 302.60534195 241.54761444 302.7345047 240.79551697 C303.0487584 238.97275863 303.0487584 238.97275863 303 237 C303.66 237 304.32 237 305 237 C304.97925966 237.91742745 304.97925966 237.91742745 304.95810032 238.85338879 C304.62575618 253.78684204 304.37810565 268.71952425 304.22281742 283.65576458 C304.14570716 290.87937007 304.04074547 298.10049666 303.8684082 305.32250977 C303.71813419 311.62297822 303.62195478 317.92165117 303.58867258 324.22386199 C303.56922709 327.55819847 303.516121 330.88336691 303.41404915 334.2168026 C302.39203295 349.23195545 302.39203295 349.23195545 308.21505737 362.41860962 C311.25358114 365.30920622 314.52270138 367.62654998 318.10163689 369.79831886 C321.10365471 371.69862348 323.68764518 373.99236705 326.375 376.3125 C328.8894534 378.76789413 328.8894534 378.76789413 332 380 C332 331.82 332 283.64 332 234 C334.31 233.67 336.62 233.34 339 233 C339.99 232.67 340.98 232.34 342 232 C341.9870949 232.79807446 341.9741898 233.59614891 341.96089363 234.41840744 C341.65115033 253.87479822 341.41977308 273.33069439 341.27462959 292.78902817 C341.20256462 302.19928508 341.10439819 311.60789225 340.94384766 321.01708984 C340.80390774 329.22232617 340.71389406 337.42636755 340.68276107 345.6327641 C340.66457119 349.97517502 340.62212271 354.31416893 340.51977921 358.65547943 C339.13992384 377.09948022 339.13992384 377.09948022 344.99017334 393.67492676 C347.7726282 396.38452418 350.74029215 398.29584599 354.20409775 400.02265167 C357.25036047 401.68045892 359.65787591 403.95752229 362.25 406.25 C365.25396615 409.1010723 365.25396615 409.1010723 369 410 C369 348.62 369 287.24 369 224 C371.97 223.01 374.94 222.02 378 221 C377.97925966 222.51268353 377.97925966 222.51268353 377.95810032 224.05592632 C377.62465811 248.62826157 377.37840549 273.20030245 377.22281742 297.77442455 C377.14556919 309.65862264 377.04031655 321.54132364 376.8684082 333.42456055 C376.71858924 343.7858256 376.62205546 354.14600629 376.58867258 364.50832444 C376.56916572 369.99248799 376.52355391 375.47355035 376.41404915 380.95671654 C376.31165017 386.12632785 376.28093358 391.29158515 376.30338478 396.46211433 C376.2992829 398.35165018 376.26976777 400.24134272 376.21191788 402.12999725 C375.82025845 413.43789431 375.82025845 413.43789431 381.24731255 422.93294716 C384.35188105 425.81097703 387.65733616 428.31580117 391.14563358 430.70817721 C393.85379749 432.59478809 396.34458626 434.6947022 398.875 436.8125 C401.17606781 438.98844371 401.17606781 438.98844371 404 440 C404 363.44 404 286.88 404 208 C405.98 207.34 407.96 206.68 410 206 C411.485 205.01 411.485 205.01 413 204 C412.99078207 205.24921454 412.98156414 206.49842909 412.97206688 207.78549862 C412.75538195 237.45449669 412.59054261 267.12329032 412.48934671 296.79288599 C412.47683998 300.44647941 412.46389672 304.10007117 412.45068359 307.75366211 C412.44806049 308.48101132 412.44543739 309.20836053 412.44273479 309.95775063 C412.3992481 321.72747514 412.32041792 333.49671009 412.22847204 345.26614439 C412.13488107 357.34711987 412.07939654 369.42783937 412.05911505 381.50916249 C412.04663716 388.29344543 412.01668668 395.07670855 411.94269943 401.86062431 C411.87477016 408.24752187 411.85389462 414.63285417 411.86892319 421.02007866 C411.86617436 423.36265574 411.84631131 425.7052857 411.80794525 428.0475502 C411.18611144 440.23954933 411.18611144 440.23954933 415.18858719 451.34106636 C417.68966375 453.62689849 420.0720312 455.3167865 423 457 C424.1013296 457.90117677 425.18611586 458.8235308 426.2421875 459.77734375 C427.11101562 460.49019531 427.97984375 461.20304687 428.875 461.9375 C429.75929688 462.66839844 430.64359375 463.39929688 431.5546875 464.15234375 C433.67353015 465.7533223 435.62191558 466.8612477 438 468 C437.99945793 467.40557488 437.99891585 466.81114976 437.99835736 466.19871175 C437.96712382 430.97606799 437.97226997 395.75361275 438.02472496 360.53099176 C438.03099038 356.30272533 438.03695152 352.07445853 438.04272461 347.84619141 C438.04387905 347.0044119 438.04503349 346.1626324 438.04622292 345.29534443 C438.06419508 331.6614536 438.05751305 318.02768049 438.04173584 304.39379172 C438.02609771 290.40639041 438.03691668 276.41919044 438.07234758 262.43182433 C438.09337903 253.79923838 438.09372035 245.16715888 438.06768017 236.53458448 C438.05180458 230.61661616 438.06160472 224.69903907 438.09166015 218.78112714 C438.10824713 215.3654495 438.11345097 211.95074525 438.08818626 208.53509903 C438.06669418 204.83158338 438.08803082 201.13071828 438.12025452 197.42733765 C438.10375557 196.34756728 438.08725663 195.26779691 438.07025772 194.15530622 C438.19540124 187.01291693 438.19540124 187.01291693 440.61698806 183.96435857 C442.34530599 182.46740105 444.04764062 181.18516353 446 180 C445.99717961 180.62426606 445.99435921 181.24853213 445.99145335 181.89171535 C445.82586071 218.90995424 445.72815784 255.92779596 445.71833299 292.94641565 C445.71709412 297.39355795 445.71528936 301.84069985 445.71313477 306.2878418 C445.71271534 307.17316897 445.71229592 308.05849614 445.71186379 308.97065141 C445.70372819 323.29651301 445.64977505 337.62185297 445.57881906 351.94752542 C445.50700662 366.65254982 445.48459454 381.3570545 445.50781661 396.06223887 C445.52059051 405.13293908 445.49506606 414.20185776 445.42018137 423.2722648 C445.37248981 429.49650844 445.37288634 435.71960606 445.41065188 441.94391284 C445.43102322 445.53322098 445.43062173 449.1192679 445.37295341 452.70824242 C444.40613931 467.69876902 444.40613931 467.69876902 449.78360939 481.01584435 C452.88428677 483.95603278 456.2869653 485.91220495 460 488 C462.12154948 489.63089633 464.10700023 491.36307271 466.125 493.125 C469.73761592 496.13948034 469.73761592 496.13948034 474 498 C474.09162618 447.58654184 474.16207459 397.17309212 474.20426132 346.75956703 C474.20926393 340.80300874 474.21444124 334.84645062 474.21972656 328.88989258 C474.2207758 327.70408718 474.22182505 326.51828177 474.22290608 325.29654288 C474.24029452 306.11535142 474.27182361 286.93420809 474.30861118 267.75304515 C474.34606405 248.06023996 474.36824504 228.36745991 474.37635398 208.67462057 C474.38183273 196.53055255 474.39911484 184.38662059 474.43166587 172.24259447 C474.45286741 163.90636349 474.4591873 155.57020248 474.45400551 147.23394651 C474.4514525 142.42984012 474.455268 137.62597089 474.4768219 132.82190704 C474.49645904 128.4125683 474.49716024 124.0036235 474.48359558 119.59426563 C474.48192209 118.00984721 474.48684999 116.42540297 474.49953273 114.84103442 C474.62940885 97.59574617 471.90759291 79.34802754 460 66 C459.34 66 458.68 66 458 66 C459.86556843 64.05669955 461.75325801 62.20264342 463.8359375 60.4921875 C470.28575608 55.17911856 475.88697651 49.55902001 476.875 40.9375 C476.91625 39.638125 476.9575 38.33875 477 37 C472.81582847 38.35563023 472.81582847 38.35563023 468.75 40.0234375 C452.54296872 46.99048448 435.94900317 41.85666594 419.68457031 37.66430664 C406.88047982 34.4958881 390.30673803 33.26753585 378.328125 39.51953125 C377.55984375 40.00808594 376.7915625 40.49664062 376 41 C375.27296875 41.45761719 374.5459375 41.91523437 373.796875 42.38671875 C365.97824759 47.83290006 358.09885322 55.29587153 354 64 C353.46557481 71.34834635 358.35026517 77.66570115 362.75390625 83.20703125 C369.53508846 90.61111955 377.4757524 95.10475522 387.5559082 95.76147461 C398.46711795 96.00154649 406.95659103 93.0573277 415.41796875 85.9765625 C417.0517504 84.37865231 418.56434196 82.77568231 420 81 C426.81663113 88.46583409 426.56404291 98.22736725 426.27734375 107.6953125 C425.51695716 122.34143091 417.21749265 134.93836741 407 145 C405.95199219 146.04607422 405.95199219 146.04607422 404.8828125 147.11328125 C378.58555711 171.91746903 339.63385764 178.79390757 305 181 C305.01047363 180.38817871 305.02094727 179.77635742 305.03173828 179.14599609 C305.25030888 164.28596209 304.72019458 149.75954992 303 135 C302.87109375 133.85225098 302.7421875 132.70450195 302.609375 131.52197266 C299.56539956 104.8977569 294.30347094 78.84954755 284 54 C284.95261719 53.55269531 285.90523438 53.10539062 286.88671875 52.64453125 C288.15390985 52.0344022 289.42082228 51.42369415 290.6875 50.8125 C291.31333984 50.52052734 291.93917969 50.22855469 292.58398438 49.92773438 C296.80435792 47.8727881 299.89845109 45.62341565 303 42 C303 41.34 303 40.68 303 40 C301.87207031 39.86464844 300.74414062 39.72929688 299.58203125 39.58984375 C280.3549009 37.05603587 263.1029539 30.28382306 245.32421875 22.73242188 C239.23584106 20.17443244 233.50189075 18.18652648 227 17 Z " fill="#FCC900" transform="translate(0,0)"/>
<path d="M0 0 C165 0 330 0 500 0 C500.0825 76.51875 500.165 153.0375 500.25 231.875 C500.28641602 256.03960449 500.32283203 280.20420898 500.36035156 305.10107422 C500.37841797 334.59985352 500.37841797 334.59985352 500.3817749 348.40774536 C500.38550277 358.05532739 500.40016591 367.7028166 500.42230225 377.35037231 C500.4478092 388.48343486 500.4593331 399.61640849 500.4537798 410.74950046 C500.45137575 416.44147327 500.45512026 422.13324747 500.47686052 427.82518363 C500.4964356 432.98176342 500.49722293 438.13800559 500.48360443 443.29460144 C500.48192087 445.14954622 500.48688339 447.00451286 500.49953032 448.85941529 C500.70907407 481.53864628 488.3730374 509.35620488 466 533 C464.95392578 534.12535156 464.95392578 534.12535156 463.88671875 535.2734375 C430.57132083 569.98966568 379.23646948 585.56829927 334.9140625 600.83984375 C333.97045364 601.16571976 333.02684479 601.49159576 332.05464172 601.8273468 C327.46421778 603.41132438 322.87066741 604.98450963 318.26928711 606.53637695 C293.21861842 615.06832991 266.9314307 625.6446053 251 648 C247.74957109 646.60493574 245.92628208 645.03216606 243.6875 642.3125 C243.07390625 641.59578125 242.4603125 640.8790625 241.828125 640.140625 C241.22484375 639.43421875 240.6215625 638.7278125 240 638 C232.24691577 628.96805652 221.76386158 623.10573968 211.1015625 618.11328125 C210.36834778 617.76973602 209.63513306 617.4261908 208.87969971 617.07223511 C201.00293843 613.44766548 192.92377236 610.49925078 184.75 607.625 C183.17277981 607.06258756 181.59579838 606.49950515 180.01904297 605.93579102 C171.588916 602.93064414 163.13209078 600.01092715 154.65649414 597.13671875 C111.8926257 582.61503733 67.80494445 566.06981965 35 534 C34.26523437 533.32710937 33.53046875 532.65421875 32.7734375 531.9609375 C17.66062354 517.81149016 6.65576845 497.0468461 2 477 C1.74230432 475.95096623 1.74230432 475.95096623 1.47940266 474.88073987 C-0.50686213 465.6266721 -0.27222099 456.39930341 -0.24050903 446.98603821 C-0.2413849 445.05903568 -0.24314061 443.13203338 -0.24569702 441.20503235 C-0.25017018 435.91891643 -0.24217353 430.63288196 -0.23214546 425.34677638 C-0.22339774 419.55540181 -0.22633563 413.76403085 -0.2277813 407.97265148 C-0.22884366 396.73602965 -0.2196183 385.49943985 -0.20677864 374.26282625 C-0.19236894 361.262576 -0.1907886 348.26234495 -0.18920898 335.26208496 C-0.17871173 300.94555157 -0.15078946 266.6290253 -0.125 232.3125 C-0.08375 155.649375 -0.0425 78.98625 0 0 Z M6 6 C5.938125 81.24 5.87625 156.48 5.8125 234 C5.78518799 257.76515625 5.75787598 281.5303125 5.72973633 306.015625 C5.71970359 327.30175716 5.71970359 327.30175716 5.71366882 348.58789062 C5.71087171 358.07554352 5.69986918 367.56314339 5.68327332 377.05078125 C5.6641542 387.99714579 5.6554976 398.94345949 5.65966515 409.88984084 C5.66146955 415.48731757 5.65864248 421.08468072 5.64235461 426.68213654 C5.62769461 431.75109772 5.62706937 436.81986561 5.63729668 441.88883591 C5.63856139 443.71417754 5.63482144 445.53953158 5.62535226 447.36484909 C5.55793761 461.18032566 6.31928037 474.85682336 11.8125 487.75 C12.07111816 488.3594043 12.32973633 488.96880859 12.59619141 489.59667969 C13.37585752 491.40724292 14.18741549 493.20396969 15 495 C15.47566406 496.0621875 15.95132812 497.124375 16.44140625 498.21875 C21.8152727 509.5814758 29.39848811 518.92140588 38 528 C38.82113281 528.88558594 39.64226563 529.77117188 40.48828125 530.68359375 C74.55042057 566.25960593 126.91571711 581.14030169 172.20074463 596.7590332 C200.98826223 606.69133469 227.1168263 615.96829797 249 638 C252.43169885 636.54343449 254.38533788 634.68387826 256.875 631.9375 C264.61850903 624.0550373 274.15676264 618.77573343 283.9375 613.8125 C284.52023682 613.51593506 285.10297363 613.21937012 285.70336914 612.91381836 C298.22605295 606.77399895 311.51279886 602.34347159 324.67889404 597.82366943 C397.13965395 574.01534046 397.13965395 574.01534046 459 531 C459.84820312 530.22527344 460.69640625 529.45054687 461.5703125 528.65234375 C476.60943822 514.53253762 487.24154094 495.02321883 492 475 C492.25052024 473.97400508 492.25052024 473.97400508 492.50610149 472.92728299 C494.47297162 463.74648017 494.27252746 454.62779794 494.24050903 445.28974915 C494.24138494 443.3956649 494.24314072 441.50158089 494.24569702 439.60749817 C494.25016945 434.41255647 494.24217454 429.21769767 494.23214546 424.02276649 C494.22339668 418.33095203 494.2263357 412.63914124 494.2277813 406.94732189 C494.22884359 395.904264 494.21961894 384.86123871 494.20677864 373.81818919 C494.19236803 361.04167208 494.19078855 348.26517449 494.18920898 335.48864746 C494.17871205 301.76325982 494.15078977 268.03787942 494.125 234.3125 C494.08375 158.969375 494.0425 83.62625 494 6 C332.96 6 171.92 6 6 6 Z " fill="#0E0B00" transform="translate(0,0)"/>
<path d="M0 0 C1.18335938 0.185625 2.36671875 0.37125 3.5859375 0.5625 C5.4933131 13.4087562 5.4933131 13.4087562 2.55175781 18.27246094 C-0.38614373 21.64943348 -3.93752612 24.31719111 -7.48046875 27.02783203 C-10.8336397 29.68919978 -13.88132231 32.67216166 -16.9765625 35.625 C-20.63155263 39.05847558 -24.30008904 42.47351789 -28.03125 45.82421875 C-28.59255615 46.33009521 -29.1538623 46.83597168 -29.73217773 47.35717773 C-31.25630855 48.72689638 -32.78617191 50.09022854 -34.31640625 51.453125 C-36.6491073 53.30305258 -36.6491073 53.30305258 -36.4140625 55.5625 C-18.23658703 59.37007826 -18.23658703 59.37007826 0.109375 62.203125 C2.5859375 62.5625 2.5859375 62.5625 5.5859375 63.5625 C5.5859375 65.2125 5.5859375 66.8625 5.5859375 68.5625 C3.6059375 67.5725 3.6059375 67.5725 1.5859375 66.5625 C0.93367188 67.15160156 0.28140625 67.74070312 -0.390625 68.34765625 C-1.26460938 69.09917969 -2.13859375 69.85070312 -3.0390625 70.625 C-3.89757812 71.37910156 -4.75609375 72.13320313 -5.640625 72.91015625 C-9.190013 75.02479163 -10.46141906 74.49246215 -14.4140625 73.5625 C-16.27583022 72.86286746 -18.11418266 72.0981819 -19.92578125 71.27734375 C-20.93060547 70.82939453 -21.93542969 70.38144531 -22.97070312 69.91992188 C-24.00388672 69.45134766 -25.03707031 68.98277344 -26.1015625 68.5 C-28.16571368 67.56661146 -30.23202892 66.63798951 -32.30078125 65.71484375 C-33.21045654 65.30226318 -34.12013184 64.88968262 -35.05737305 64.46459961 C-37.46044749 63.38375626 -37.46044749 63.38375626 -40.4140625 63.5625 C-39.34817621 74.38045036 -37.42536364 84.87216602 -35.09106445 95.48632812 C-34.87538818 96.47568359 -34.65971191 97.46503906 -34.4375 98.484375 C-34.14238525 99.80840332 -34.14238525 99.80840332 -33.84130859 101.15917969 C-33.4140625 103.5625 -33.4140625 103.5625 -33.4140625 107.5625 C-34.46207031 107.53929687 -35.51007813 107.51609375 -36.58984375 107.4921875 C-37.96874287 107.47342697 -39.3476497 107.45522707 -40.7265625 107.4375 C-41.76200195 107.41236328 -41.76200195 107.41236328 -42.81835938 107.38671875 C-46.58541646 107.35032206 -48.19837954 107.41871136 -51.4140625 109.5625 C-51.47789847 103.45286543 -51.26677599 97.45768313 -50.7578125 91.37109375 C-50.69122437 90.54037857 -50.62463623 89.70966339 -50.55603027 88.85377502 C-50.34539511 86.23556578 -50.12981854 83.6177917 -49.9140625 81 C-49.76920237 79.21031305 -49.62466816 77.42059968 -49.48046875 75.63085938 C-49.12876252 71.27442554 -48.77262824 66.91837439 -48.4140625 62.5625 C-54.41903173 66.82726733 -60.24901697 71.05933279 -65.6015625 76.125 C-66.60615753 77.06575952 -67.61136693 78.0058634 -68.6171875 78.9453125 C-69.54015625 79.80898438 -70.463125 80.67265625 -71.4140625 81.5625 C-75.64606933 85.36009553 -79.93197888 89.06087217 -84.4140625 92.5625 C-84.8265625 92.15257812 -85.2390625 91.74265625 -85.6640625 91.3203125 C-90.10293822 87.17868292 -93.43887529 85.61077846 -99.4140625 84.5625 C-95.6002084 81.37920311 -91.25307263 79.3588675 -86.8515625 77.125 C-79.67961802 73.41149392 -72.7056042 69.4603121 -65.8515625 65.1875 C-65.03679443 64.68806885 -64.22202637 64.1886377 -63.38256836 63.67407227 C-62.62854736 63.19639404 -61.87452637 62.71871582 -61.09765625 62.2265625 C-60.43306396 61.80842285 -59.76847168 61.3902832 -59.08374023 60.95947266 C-57.16168241 59.35134064 -56.37633867 57.85450573 -55.4140625 55.5625 C-56.16300781 55.459375 -56.91195312 55.35625 -57.68359375 55.25 C-62.89561814 54.28945938 -67.97989968 52.91720058 -73.1015625 51.5625 C-74.14634766 51.28921875 -75.19113281 51.0159375 -76.26757812 50.734375 C-83.96582922 48.71191109 -83.96582922 48.71191109 -87.4140625 47.5625 C-87.7440625 43.2725 -88.0740625 38.9825 -88.4140625 34.5625 C-89.7340625 34.2325 -91.0540625 33.9025 -92.4140625 33.5625 C-91.7540625 32.9025 -91.0940625 32.2425 -90.4140625 31.5625 C-85.59606708 31.83569671 -81.599082 34.38579074 -77.4453125 36.6328125 C-75.88955515 37.45486674 -74.33355822 38.27646771 -72.77734375 39.09765625 C-70.33853185 40.39359807 -67.90226386 41.6938484 -65.47021484 43.00244141 C-63.11416457 44.26676788 -60.74937724 45.51330635 -58.3828125 46.7578125 C-57.65872192 47.15356476 -56.93463135 47.54931702 -56.18859863 47.95706177 C-53.08252408 49.57872162 -51.10839089 50.58066868 -47.55908203 50.48779297 C-44.02143705 48.96176582 -42.62110622 45.77835343 -40.7890625 42.5625 C-39.91306746 41.09278971 -39.03540698 39.62407105 -38.15625 38.15625 C-37.70604492 37.39570313 -37.25583984 36.63515625 -36.79199219 35.8515625 C-34.15674974 31.47381034 -31.34846607 27.20453272 -28.50561523 22.95922852 C-26.12609167 19.37064974 -23.99523345 15.81721908 -22.12890625 11.93359375 C-16.64863933 0.99671234 -12.30941879 -1.35642055 0 0 Z " fill="#F80000" transform="translate(181.4140625,424.4375)"/>
<path d="M0 0 C6.01281495 -1.07159078 12.09267483 -1.99810405 18 0 C22.64079235 3.8324741 24.93152947 9.88989364 27.52636719 15.18359375 C30.24422321 20.37795873 33.56391594 25.18942628 36.8125 30.0625 C38.04900056 31.94867917 39.28470745 33.83537893 40.51953125 35.72265625 C43.66041452 40.49466823 46.82346258 45.2516583 50 50 C55.83580912 49.47979011 60.32142972 47.08389475 65.4375 44.4375 C66.3140625 43.99365967 67.190625 43.54981934 68.09375 43.0925293 C72.26775603 40.96793289 76.40769857 38.79451112 80.50390625 36.5234375 C81.18332275 36.14904541 81.86273926 35.77465332 82.56274414 35.38891602 C83.82500738 34.68755261 85.08113088 33.97498663 86.32983398 33.24975586 C88.80071212 31.87160931 90.47741306 30.96254794 93.34375 31.16796875 C95 32 95 32 96 34 C94.68 34 93.36 34 92 34 C91.67 38.29 91.34 42.58 91 47 C89.48148437 47.40992188 87.96296875 47.81984375 86.3984375 48.2421875 C84.39060042 48.78636764 82.38278928 49.33064351 80.375 49.875 C79.37597656 50.14441406 78.37695312 50.41382813 77.34765625 50.69140625 C73.36986558 51.77146862 69.43638306 52.84928531 65.5390625 54.1953125 C63 55 63 55 59 55 C60.41236201 58.44572007 61.90041272 59.90485423 65.05078125 61.84765625 C66.30242065 62.62459839 66.30242065 62.62459839 67.5793457 63.41723633 C68.48128662 63.96017334 69.38322754 64.50311035 70.3125 65.0625 C71.23571045 65.62670654 72.1589209 66.19091309 73.11010742 66.7722168 C82.83201889 72.63723072 92.86403585 77.8924425 103 83 C101 85 101 85 97.75 85.8125 C93.34785086 87.20651389 91.41495614 88.98213179 88 92 C87.34 92 86.68 92 86 92 C84.625 90.56640625 84.625 90.56640625 83 88.5625 C74.9202755 79.10856006 63.26183829 67.63091914 52 62 C52.09087891 63.21059082 52.18175781 64.42118164 52.27539062 65.66845703 C52.61307828 70.17463945 52.94784195 74.6810352 53.28173828 79.1875 C53.42645232 81.13515029 53.5719514 83.08274241 53.71826172 85.03027344 C53.92884127 87.83513582 54.13656487 90.64019759 54.34375 93.4453125 C54.44218201 94.74409836 54.44218201 94.74409836 54.54260254 96.06912231 C54.85902934 100.39123433 55.07404183 104.66238268 55 109 C54.01 108.34 53.02 107.68 52 107 C49.39754502 106.85778935 46.90882316 106.81197068 44.3125 106.875 C43.61060547 106.88402344 42.90871094 106.89304687 42.18554688 106.90234375 C40.45688475 106.92586296 38.72839855 106.96173287 37 107 C37.70268872 100.31647203 39.05566709 93.87099778 40.5 87.3125 C42.32163459 78.85320787 43.81363612 70.67439166 44 62 C41.76886848 62.87023387 39.53987644 63.74523222 37.3125 64.625 C36.30050537 65.02344116 36.30050537 65.02344116 35.26806641 65.42993164 C29.63072991 67.67945207 24.21848342 70.24786911 18.8046875 72.99609375 C15.5675647 74.15478534 14.20687898 74.17602832 11 73 C8.58592649 71.26577519 6.41738018 69.35735593 4.18359375 67.3984375 C2.10653631 65.73924012 2.10653631 65.73924012 -0.27734375 66.2890625 C-0.84582031 66.52367187 -1.41429687 66.75828125 -2 67 C-1.67 65.35 -1.34 63.7 -1 62 C0.06436279 61.823479 1.12872559 61.64695801 2.2253418 61.46508789 C6.18576644 60.80804079 10.14601024 60.14990924 14.10620117 59.49145508 C15.8180663 59.20698075 17.5299799 58.92279794 19.24194336 58.63891602 C21.70699758 58.2301022 24.17187382 57.82022979 26.63671875 57.41015625 C27.39836838 57.28407486 28.16001801 57.15799347 28.94474792 57.02809143 C32.64342733 56.4117095 36.32891269 55.76467765 40 55 C38.70421876 52.11678008 37.38255448 50.16552463 35.05078125 48.0390625 C34.45724854 47.49193604 33.86371582 46.94480957 33.25219727 46.38110352 C32.61209717 45.80158936 31.97199707 45.2220752 31.3125 44.625 C29.95293231 43.37651188 28.5935631 42.1278076 27.234375 40.87890625 C26.53505859 40.23969238 25.83574219 39.60047852 25.11523438 38.94189453 C23.04927039 37.04523277 20.99833472 35.13384906 18.953125 33.21484375 C18.3044043 32.60705078 17.65568359 31.99925781 16.98730469 31.37304688 C15.71027009 30.17181799 14.43742636 28.96611721 13.16894531 27.75585938 C9.94630268 24.70391852 6.74355027 22.12007809 3.0625 19.625 C1.02169521 17.93681807 0.13361591 16.78564485 -0.31298828 14.15966797 C-0.66872716 9.40886769 -0.40963255 4.73922101 0 0 Z " fill="#F80000" transform="translate(315,425)"/>
<path d="M0 0 C2.16015625 1.1171875 2.16015625 1.1171875 3.8125 2.875 C4.69680923 6.21778148 4.96223829 9.42947131 5.2421875 12.875 C6.2101801 21.82119644 11.27500164 30.62271252 16 38.125 C20.67858084 45.56306552 23.0972738 53.07987063 22.8125 61.875 C9.34344436 64.96625867 -2.78588265 66.63322896 -16.1875 61.875 C-16.8475 61.215 -17.5075 60.555 -18.1875 59.875 C-17.03894531 59.82601562 -15.89039063 59.77703125 -14.70703125 59.7265625 C-5.40297224 59.291784 3.63610293 58.54490971 12.8125 56.875 C8.03259622 46.55244185 4.12539536 38.62894607 -6.53125 33.75 C-12.9031854 31.65100952 -19.0401072 32.28662408 -25.1875 34.875 C-30.5824301 27.32209786 -32.03847429 21.05728709 -31.1875 11.875 C-29.43980248 6.42629596 -25.79471838 3.08958192 -21.1875 -0.125 C-14.6323289 -2.31005703 -6.60108231 -1.98569143 0 0 Z " fill="#F90000" transform="translate(222.1875,24.125)"/>
<path d="M0 0 C0.67546875 0.27070312 1.3509375 0.54140625 2.046875 0.8203125 C3.50867188 1.40425781 3.50867188 1.40425781 5 2 C6.11890625 2.45117188 7.2378125 2.90234375 8.390625 3.3671875 C21.9112357 8.70074784 35.62364404 11.89479181 50 14 C43.99806211 18.00129192 34.98687013 16.70997229 28 16 C17.64101384 13.51427006 7.10496139 8.05228957 0 0 Z " fill="#EA0000" transform="translate(179,64)"/>
<path d="M0 0 C3.875 0.875 3.875 0.875 5 2 C5.23192865 3.51469448 5.41215238 5.03754562 5.5625 6.5625 C5.64628906 7.38878906 5.73007813 8.21507812 5.81640625 9.06640625 C5.87699219 9.70449219 5.93757812 10.34257813 6 11 C6.99 9.02 7.98 7.04 9 5 C10.65 5.33 12.3 5.66 14 6 C14 9 14 9 12.609375 10.640625 C11.99578125 11.17171875 11.3821875 11.7028125 10.75 12.25 C9.84507812 13.06210937 9.84507812 13.06210937 8.921875 13.890625 C7 15 7 15 4.875 14.97265625 C3 14 3 14 1.953125 11.85546875 C1.72109375 10.97503906 1.4890625 10.09460937 1.25 9.1875 C1.00765625 8.31480469 0.7653125 7.44210938 0.515625 6.54296875 C0 4 0 4 0 0 Z " fill="#D9D9D9" transform="translate(231,31)"/>
<path d="M0 0 C3.3 0.33 6.6 0.66 10 1 C10 6.28 10 11.56 10 17 C7.08347941 14.08347941 5.36855829 11.48495487 3.3125 7.9375 C2.37857422 6.34228516 2.37857422 6.34228516 1.42578125 4.71484375 C0 2 0 2 0 0 Z " fill="#E40000" transform="translate(78,512)"/>
<path d="M0 0 C-1.30952279 4.43526814 -3.04733668 7.99986319 -5.5625 11.875 C-6.18253906 12.84179688 -6.80257813 13.80859375 -7.44140625 14.8046875 C-7.95574219 15.52914062 -8.47007812 16.25359375 -9 17 C-9.33 17 -9.66 17 -10 17 C-10 11.72 -10 6.44 -10 1 C-6.33418546 0.26683709 -3.63300168 -0.10380005 0 0 Z " fill="#E60000" transform="translate(422,512)"/>
<path d="M0 0 C5 1 5 1 7.3125 4.0625 C7.869375 5.031875 8.42625 6.00125 9 7 C7.23628182 8.03307771 5.46374967 9.05112049 3.6875 10.0625 C2.70136719 10.63097656 1.71523438 11.19945312 0.69921875 11.78515625 C-2 13 -2 13 -5 12 C-3.35 8.04 -1.7 4.08 0 0 Z " fill="#ED0000" transform="translate(362,534)"/>
<path d="M0 0 C1.65 0.33 3.3 0.66 5 1 C5.53190541 2.43344 6.05015258 3.87195367 6.5625 5.3125 C6.85253906 6.11300781 7.14257812 6.91351562 7.44140625 7.73828125 C8 10 8 10 7 13 C3.04 11.02 -0.92 9.04 -5 7 C-3.35 4.69 -1.7 2.38 0 0 Z " fill="#EC0000" transform="translate(134,534)"/>
<path d="M0 0 C1.65 0.33 3.3 0.66 5 1 C5 5.95 5 10.9 5 16 C-1.6901454 11.22132472 -1.6901454 11.22132472 -2.53515625 7.890625 C-2.5625 5.75 -2.5625 5.75 -2 2 C-1.34 1.34 -0.68 0.68 0 0 Z " fill="#F10000" transform="translate(315,495)"/>
<path d="M0 0 C1.86340088 1.86340088 1.5 4.37592641 1.5 6.85546875 C0.5457048 10.94850051 -2.70548225 12.64677303 -6 15 C-6 10.05 -6 5.1 -6 0 C-3.49749232 -1.25125384 -2.59701335 -0.83774624 0 0 Z " fill="#F10000" transform="translate(186,496)"/>
<path d="M0 0 C3.625 -0.1875 3.625 -0.1875 7 0 C7.5 2.5625 7.5 2.5625 7 6 C4.60315805 8.68639333 1.92667674 10.90863269 -1 13 C-1.33 13 -1.66 13 -2 13 C-2.05416188 11.39620659 -2.09286638 9.79188594 -2.125 8.1875 C-2.14820312 7.29417969 -2.17140625 6.40085937 -2.1953125 5.48046875 C-2 3 -2 3 0 0 Z " fill="#F10000" transform="translate(83,462)"/>
<path d="M0 0 C5.48076923 -0.36538462 5.48076923 -0.36538462 7.6875 1.1875 C9.45312631 3.62574585 9.30348915 5.21044507 9.1875 8.1875 C9.16042969 9.08855469 9.13335937 9.98960937 9.10546875 10.91796875 C9.07066406 11.60503906 9.03585937 12.29210937 9 13 C5.48300581 11.04611434 2.47513961 9.20851431 0 6 C-0.25 2.75 -0.25 2.75 0 0 Z " fill="#F30000" transform="translate(410,462)"/>
<path d="M0 0 C1.32 0.33 2.64 0.66 4 1 C4 4.63 4 8.26 4 12 C2 11 2 11 0.875 7.6875 C0 4 0 4 0 0 Z " fill="#EFEFEF" transform="translate(231,31)"/>
</svg>
